<svg width="1400" height="1060" viewBox="0 0 1400 1060" fill="none" xmlns="http://www.w3.org/2000/svg">
<path fill-rule="evenodd" clip-rule="evenodd" d="M0 0H1400V1060H0V0ZM76 913.812H325.434C376.762 913.812 423.871 905.023 466.762 887.445C510.004 869.516 547.445 844.203 579.086 811.508C610.727 778.812 635.16 739.965 652.387 694.965C669.965 649.965 678.754 600.395 678.754 546.254V514.086C678.754 459.594 669.965 410.023 652.387 365.375C635.16 320.375 610.551 281.527 578.559 248.832C546.918 215.785 509.301 190.473 465.707 172.895C422.465 154.965 374.828 146 322.797 146H261.098H151.938H76V913.812ZM721 913.812H970.434C1021.76 913.812 1068.87 905.023 1111.76 887.445C1155 869.516 1192.45 844.203 1224.09 811.508C1255.73 778.812 1280.16 739.965 1297.39 694.965C1314.96 649.965 1323.75 600.395 1323.75 546.254V514.086C1323.75 459.594 1314.96 410.023 1297.39 365.375C1280.16 320.375 1255.55 281.527 1223.56 248.832C1191.92 215.785 1154.3 190.473 1110.71 172.895C1067.46 154.965 1019.83 146 967.797 146H906.098H796.938H721V913.812Z" fill="white"/>
</svg>
